<svg xmlns="http://www.w3.org/2000/svg" viewBox="0 8.859999656677246 140.08999633789062 46.93000030517578" data-asc="0.9052734375"><g fill="#000000"><g fill="#000000" transform="translate(0, 0)"><path d="M11.79 45.26L11.79 13.70L0 13.70L0 9.47L28.37 9.47L28.37 13.70L16.53 13.70L16.53 45.26L11.79 45.26ZM44.87 36.91L49.41 37.48Q48.34 41.46 45.43 43.65Q42.53 45.85 38.01 45.85Q32.32 45.85 28.99 42.35Q25.66 38.84 25.66 32.52Q25.66 25.98 29.03 22.36Q32.40 18.75 37.77 18.75Q42.97 18.75 46.26 22.29Q49.56 25.83 49.56 32.25Q49.56 32.64 49.54 33.42L30.20 33.42Q30.44 37.70 32.62 39.97Q34.79 42.24 38.04 42.24Q40.45 42.24 42.16 40.97Q43.87 39.70 44.87 36.91M30.44 29.81L44.92 29.81Q44.63 26.54 43.26 24.90Q41.16 22.36 37.82 22.36Q34.79 22.36 32.73 24.39Q30.66 26.42 30.44 29.81ZM52.00 45.26L61.47 31.79L52.71 19.34L58.20 19.34L62.18 25.42Q63.31 27.15 63.99 28.32Q65.06 26.71 65.97 25.46L70.34 19.34L75.59 19.34L66.63 31.54L76.27 45.26L70.87 45.26L65.55 37.21L64.14 35.03L57.32 45.26L52.00 45.26ZM89.53 41.33L90.16 45.21Q88.31 45.61 86.84 45.61Q84.45 45.61 83.13 44.85Q81.81 44.09 81.27 42.86Q80.74 41.63 80.74 37.67L80.74 22.75L77.51 22.75L77.51 19.34L80.74 19.34L80.74 12.92L85.11 10.28L85.11 19.34L89.53 19.34L89.53 22.75L85.11 22.75L85.11 37.92Q85.11 39.79 85.34 40.33Q85.57 40.87 86.10 41.19Q86.62 41.50 87.60 41.50Q88.33 41.50 89.53 41.33ZM93.85 14.53L93.85 9.47L98.24 9.47L98.24 14.53L93.85 14.53M93.85 45.26L93.85 19.34L98.24 19.34L98.24 45.26L93.85 45.26ZM105.98 45.26L105.98 22.75L102.10 22.75L102.10 19.34L105.98 19.34L105.98 16.58Q105.98 13.96 106.45 12.70Q107.08 10.99 108.68 9.92Q110.28 8.86 113.16 8.86Q115.01 8.86 117.26 9.30L116.60 13.13Q115.23 12.89 114.01 12.89Q112.01 12.89 111.18 13.75Q110.35 14.60 110.35 16.94L110.35 19.34L115.41 19.34L115.41 22.75L110.35 22.75L110.35 45.26L105.98 45.26ZM118.63 55.25L118.14 51.12Q119.58 51.51 120.65 51.51Q122.12 51.51 123.00 51.03Q123.88 50.54 124.44 49.66Q124.85 49.00 125.78 46.39Q125.90 46.02 126.17 45.31L116.33 19.34L121.07 19.34L126.46 34.35Q127.51 37.21 128.34 40.36Q129.10 37.33 130.15 34.45L135.69 19.34L140.09 19.34L130.22 45.70Q128.64 49.98 127.76 51.59Q126.59 53.76 125.07 54.77Q123.56 55.79 121.46 55.79Q120.19 55.79 118.63 55.25Z"/></g></g></svg>